<svg width="48" height="48" viewBox="0 0 48 48" fill="none" xmlns="http://www.w3.org/2000/svg">
<path d="M11 33.9952C12.7252 34.4393 14 36.0054 14 37.8693C14 40.0784 12.2091 41.8693 10 41.8693C7.79086 41.8693 6 40.0784 6 37.8693C6 36.0054 7.27477 34.4393 9 33.9952V4.86926H11V33.9952ZM10 35.8693C8.89543 35.8693 8 36.7647 8 37.8693C8 38.9738 8.89543 39.8693 10 39.8693C11.1046 39.8693 12 38.9738 12 37.8693C12 36.7647 11.1046 35.8693 10 35.8693Z" fill="white" fill-opacity="0.33"/>
<path d="M38 7.86926C40.2091 7.86926 42 9.66012 42 11.8693C42 13.7331 40.7252 15.2992 39 15.7433V43.8693H37V15.7433C35.2748 15.2992 34 13.7331 34 11.8693C34 9.66012 35.7909 7.86926 38 7.86926ZM38 9.86926C36.8954 9.86926 36 10.7647 36 11.8693C36 12.9738 36.8954 13.8693 38 13.8693C39.1046 13.8693 40 12.9738 40 11.8693C40 10.7647 39.1046 9.86926 38 9.86926Z" fill="white" fill-opacity="0.33"/>
<path d="M38.3623 43.8693C38.3627 28.8692 9.50216 19.8675 9.5024 4.3693" stroke="white" stroke-width="6"/>
</svg>
