<svg width="40" height="40" viewBox="0 0 40 40" fill="none" xmlns="http://www.w3.org/2000/svg">
<path d="M14 18.1904L14.5449 17.7109L15.2959 17.0498L17.3203 19.3496L16.5693 20.0107L15.8184 20.6709L14 18.6035V34C14 35.0357 13.2128 35.887 12.2041 35.9893L12 36H7L6.7959 35.9893C5.78722 35.887 5 35.0357 5 34V14.1875C5.82275 14.9775 6.85216 15.552 8 15.8232V33H11V15.8232C12.1478 15.552 13.1772 14.9775 14 14.1875V18.1904ZM24.6445 27.6729C24.3335 28.3158 24.1271 29.0182 24.043 29.7578L23.915 29.8711L21.8906 27.5713L22.6416 26.9102L23.3916 26.25L24.6445 27.6729ZM33 4C34.1046 4 35 4.89543 35 6V25.8115C34.1773 25.0217 33.1477 24.447 32 24.1758V7H29V24.1758C27.8523 24.447 26.8227 25.0217 26 25.8115V23.001L24.8984 23.9502L22.9199 21.6504L23.6787 20.998L24.4365 20.3457L26 22.1631V6C26 4.89543 26.8954 4 28 4H33ZM21.3682 23.9502L20.6172 24.6104L19.8662 25.2715L17.8428 22.9717L18.5938 22.3105L19.3438 21.6504L21.3682 23.9502ZM22.458 18.0459L21.7002 18.6982L20.9424 19.3496L18.9639 17.0498L19.7227 16.3984L20.4805 15.7461L22.458 18.0459ZM18.502 13.4463L17.7441 14.0977L16.9863 14.75L15.1826 12.6543C15.2932 12.4555 15.3947 12.251 15.4844 12.04L15.7666 11.7979L16.5244 11.1455L18.502 13.4463Z" fill="white"/>
<circle cx="30.5" cy="30.5" r="4" stroke="white" stroke-width="3"/>
<circle cx="9.5" cy="9.5" r="4" stroke="white" stroke-width="3"/>
</svg>
